# xmcd
#
# Track frame offsets: 
#        150
#        545
#        16680
#        29787
#        69007
#        83440
#        94415
#        98675
#        114375
#        128132
#        129537
#        141232
#        152385
#        164125
#        177510
#        193847
#        195602
#        204305
#        213825
#        215060
#        227642
#        239807
#        255345
#
# Disc length: 3607 seconds
#
# Revision: 0
# Processed by: cddbd v1.5.2PL0 Copyright (c) Steve Scherf et al.
# Submitted via: ExactAudioCopy v0.95b3
#
DISCID=3c0e1517
DTITLE=Various Artist - La victoire en chansons [2 CDs] CD1
DYEAR=1994
DGENRE=Oldies
TTITLE0=Inconnu - Message radio 'Hello New-York'
TTITLE1=Glenn Miller - In the mood
TTITLE2=Andrew Sisters - Bei mir bist du Schön
TTITLE3=Benny Goodman - Sing sing sing
TTITLE4=Artie Shaw and his orchestra - Begin the biguine
TTITLE5=Frank Sinatra - Night and day
TTITLE6=Roosevelt - Message de Roosevelt
TTITLE7=Glenn Miller - American patrol
TTITLE8=Judy Garland - Somewhere over the rainbow
TTITLE9=Inconnu - Reportage Bataille de Normandie
TTITLE10=Les Brown and his orchestra - Sentimental journey
TTITLE11=Nat King Cole - on the sunny side of the street
TTITLE12=The Ink Spots - Swing high, swing low
TTITLE13=Mills Brothers - Lazy bones
TTITLE14=Duke Ellington and his orchestra - Take the A train
TTITLE15=Inconnu - Reportage dans un village libéré
TTITLE16=Tommy Dorsey and his orchestra - Opus one
TTITLE17=Les Brown and his orchestra - September song
TTITLE18=Inconnu - Message radio pendant la Libération de Paris
TTITLE19=Sammy Kay and his orchestra - Daddy
TTITLE20=Louis Jordan and The Tympany Rive - Is you is or is you ain't m
TTITLE20=y baby
TTITLE21=Glenn Miller - Chantanooga choo choo
TTITLE22=Marlene Dietrich - Lili Marlène
EXTD=
EXTT0=
EXTT1=
EXTT2=
EXTT3=
EXTT4=
EXTT5=
EXTT6=
EXTT7=
EXTT8=
EXTT9=
EXTT10=
EXTT11=
EXTT12=
EXTT13=
EXTT14=
EXTT15=
EXTT16=
EXTT17=
EXTT18=
EXTT19=
EXTT20=
EXTT21=
EXTT22=
PLAYORDER=
